# xmcd
#
# Track frame offsets:
#	150
#	16752
#	29252
#	42542
#	59342
#	72355
#	82080
#	92792
#	108640
#	120282
#	134182
#	146692
#
# Disc length: 2099 seconds
#
# Revision: 1
# Processed by: cddbd v1.5.1PL0 Copyright (c) Steve Scherf et al.
# Submitted via: audiograbber 1.82.02
#
DISCID=ae08310c
DTITLE=Bebop Cowboys - Some Kind Of Fantasy
DYEAR=2003
DGENRE=Country
TTITLE0=Duncan Swings
TTITLE1=Crazy 'Cause I Love You
TTITLE2=Sugarfoot Rag
TTITLE3=Some Kind Of Fantasy
TTITLE4=She Walks My Way
TTITLE5=Cowboy's Girl
TTITLE6=Almost To Tulsa
TTITLE7=Ella May
TTITLE8=New Texas Panhandle Rag
TTITLE9=Back Home In Indiana
TTITLE10=Girl From Saskatoon
TTITLE11=Cadillac Boogie
EXTD=
EXTT0=
EXTT1=
EXTT2=
EXTT3=
EXTT4=
EXTT5=
EXTT6=
EXTT7=
EXTT8=
EXTT9=
EXTT10=
EXTT11=
PLAYORDER=
